# xmcd CD database file
#
# Track frame offsets:
#	150
#	16480
#	31090
#	42490
#	56305
#	71770
#	86400
#	97465
#	111340
#	125975
#	141880
#	152955
#
# Disc length: 2161 seconds
#
# Revision: 0
# Processed by: cddbd v1.5.1PL0 Copyright (c) Steve Scherf et al.
# Submitted via: CDex 1.51
#
DISCID=af086f0c
DTITLE=Urbie Green - Let's Face the Music and Dance
DYEAR=1957
DGENRE=Jazz
TTITLE0=Let's Face the Music and Dance
TTITLE1=It Must Be True
TTITLE2=Baby, Won't You Please Come Home
TTITLE3=You're My Everything
TTITLE4=I Won't Dance
TTITLE5=Dinner for One, Please, James
TTITLE6=When You're Smiling
TTITLE7=Please
TTITLE8=The Moon Is Low
TTITLE9=Love Walked in
TTITLE10=That Old Gang of Mine
TTITLE11=Show Me the Way to Go Home
EXTD=YEAR: 1957
EXTT0=
EXTT1=
EXTT2=
EXTT3=
EXTT4=
EXTT5=
EXTT6=
EXTT7=
EXTT8=
EXTT9=
EXTT10=
EXTT11=
PLAYORDER=
